<svg t="1631019333278" class="icon" viewBox="0 0 1024 1024" version="1.1" xmlns="http://www.w3.org/2000/svg" p-id="14882" width="200" height="200"><path d="M512 324.266667m-119.466667 0a119.466667 119.466667 0 1 0 238.933334 0 119.466667 119.466667 0 1 0-238.933334 0Z" fill="#FFDF4A" p-id="14883"></path><path d="M512 853.333333c103.68 0 187.733333-169.386667 187.733333-273.066666 0-103.68-84.053333-136.533333-187.733333-136.533334s-187.733333 32.853333-187.733333 136.533334 84.053333 273.066667 187.733333 273.066666z" fill="#FED10A" p-id="14884" data-spm-anchor-id="a313x.7781069.0.i24" class="selected"></path><path d="M157.047467 0v214.7328l14.728533 12.253867 158.276267 126.395733h-120.234667l-147.234133-110.455467-46.6432 63.829334 166.877866 125.149866h139.895467l-141.124267 117.794134H0v78.506666h211.0464l9.813333-8.584533 55.210667-45.397333c-0.324267 4.9152-1.2288 9.659733-1.2288 14.728533 0 6.912 0.631467 13.824 1.2288 20.855467l-147.2512 147.234133-11.025067 12.288v251.528533h78.523734V802.440533l100.642133-100.608c10.717867 29.610667 24.337067 58.897067 41.693867 85.9136 39.5776 61.44 97.536 115.319467 171.776 115.319467 74.205867 0 132.1984-53.828267 171.776-115.370667a431.104 431.104 0 0 0 41.745066-85.845333l100.590934 100.625067v218.385066h78.523733V769.3312l-11.025067-12.288-147.2512-147.234133c0.597333-7.0656 1.2288-13.943467 1.2288-20.855467 0-4.744533-0.904533-8.9088-1.2288-13.499733l55.210667 44.168533 11.025067 8.6016h209.834666v-78.523733H838.0416l-147.234133-117.794134h147.234133l166.877867-125.184-46.6432-63.761066-147.2512 110.421333h-120.2176l158.276266-126.395733 14.711467-12.219734V0h-78.506667v177.902933l-122.709333 98.167467c-6.126933-24.354133-18.432-45.397333-34.3552-63.812267V78.523733h-78.523733v84.650667c-12.578133-3.208533-25.770667-6.126933-39.2704-6.126933-13.499733 0-26.692267 2.901333-39.253334 6.144v-84.650667h-78.5408v133.717333c-15.940267 18.432-28.228267 39.424-34.3552 63.812267l-122.709333-98.167467V0h-78.506667z m353.3824 235.588267a77.909333 77.909333 0 0 1 78.523733 78.506666 77.909333 77.909333 0 0 1-78.523733 78.5408 77.909333 77.909333 0 0 1-78.523734-78.523733 77.909333 77.909333 0 0 1 78.523734-78.523733z m0 235.5712c48.298667 0 88.968533 11.6736 115.370666 30.6688 26.282667 19.0464 41.6768 43.588267 41.6768 87.125333 0 43.588267-20.087467 108.1344-51.541333 157.064533-31.402667 48.913067-71.458133 78.506667-105.506133 78.506667s-74.0864-29.5936-105.540267-78.506667c-31.402667-48.930133-51.5072-113.493333-51.5072-157.064533 0-43.5712 15.3088-68.096 41.728-87.125333 26.299733-18.9952 67.0208-30.6688 115.319467-30.6688z" fill="#ecaa3a" p-id="14885" data-spm-anchor-id="a313x.7781069.0.i13" class="selected"></path></svg>
