<svg t="1644404395011" class="icon" viewBox="0 0 1024 1024" version="1.1" xmlns="http://www.w3.org/2000/svg" p-id="10047" width="200" height="200"><path d="M512 512m-512 0a512 512 0 1 0 1024 0 512 512 0 1 0-1024 0Z" fill="#EDC55D" p-id="10048"></path><path d="M843.632 248.656l-3.664 2.616c-77.856-24.472-169.048 37.816-169.048 37.816l-133.464-4.448-155.704 262.48-141.704 107.136 364.72 361.192C843.216 971.792 1024 763.072 1024 512c0-31.864-3.064-63.016-8.632-93.272l-171.736-170.072z" fill="#D9A93F" p-id="10049"></path><path d="M726.064 247.984c-55.768 16.704-107.904 48.096-99.624 75.784l15.328-4.584c-3.264-10.952 29.72-38.16 88.888-55.856 59.16-17.72 101.672-13.128 104.952-2.176l15.328-4.584c-8.296-27.704-69.096-25.28-124.872-8.584z" fill="#A6592E" p-id="10050"></path><path d="M652.656 257.576l-143.488-1.304c-25.512-0.232-60.608 13.944-77.968 31.504L184.504 537.368c-17.36 17.552-16.216 47.112 2.56 65.672l172.904 170.944c18.768 18.56 48.344 19.384 65.704 1.824l246.704-249.584c17.36-17.56 31.128-52.816 30.592-78.328l-2.936-143.488c-0.528-25.528-21.848-46.592-47.376-46.832z m-7.08 101.04c-11.856 12.008-31.904 11.456-44.736-1.24-12.84-12.688-13.624-32.72-1.768-44.728 11.872-12.016 31.92-11.464 44.752 1.232 12.848 12.696 13.632 32.728 1.752 44.736z" fill="#3CB19C" p-id="10051"></path><path d="M359.92 654.24c-56.264 0-109.92-13.168-158.016-36.512l158.064 156.256c18.768 18.56 48.344 19.384 65.704 1.824l246.704-249.584c17.36-17.56 31.128-52.816 30.592-78.328l-0.576-28.24C647.936 555.896 513.736 654.24 359.92 654.24z" fill="#30A28C" p-id="10052"></path><path d="M746.72 317.008c-59.16 17.712-101.672 13.112-104.952 2.168l-15.328 4.584c8.296 27.688 69.096 25.264 124.872 8.568 55.784-16.704 107.904-48.096 99.624-75.784l-15.328 4.584c3.28 10.952-29.736 38.16-88.888 55.88z" fill="#A6592E" p-id="10053"></path><path d="M422.608 646.336a4.816 4.816 0 0 1-4.816-4.808V417.888a4.824 4.824 0 0 1 9.632 0v223.64c0 2.656-2.16 4.808-4.816 4.808z" fill="#FDF1F6" p-id="10054"></path><path d="M422.608 484.28a4.736 4.736 0 0 1-3.56-1.584l-28.704-31.624a4.824 4.824 0 0 1 0.328-6.808 4.824 4.824 0 0 1 6.8 0.336l28.704 31.632a4.824 4.824 0 0 1-3.568 8.048z" fill="#FDF1F6" p-id="10055"></path><path d="M422.608 484.28a4.8 4.8 0 0 1-3.56-8.048l28.688-31.632a4.824 4.824 0 0 1 7.144 6.472l-28.704 31.624a4.816 4.816 0 0 1-3.568 1.584zM451.312 616.384a4.816 4.816 0 0 1-3.576-1.576l-28.688-31.624a4.816 4.816 0 0 1 7.128-6.464l28.704 31.632a4.808 4.808 0 0 1-3.568 8.032z" fill="#FDF1F6" p-id="10056"></path><path d="M393.904 616.384a4.808 4.808 0 0 1-3.56-8.032l28.704-31.632a4.816 4.816 0 0 1 7.128 6.464l-28.704 31.624a4.84 4.84 0 0 1-3.568 1.576zM534.424 534.512H310.784a4.816 4.816 0 1 1 0-9.632h223.64a4.808 4.808 0 1 1 0 9.632z" fill="#FDF1F6" p-id="10057"></path><path d="M472.84 534.512a4.8 4.8 0 0 1-3.232-8.368l31.624-28.704a4.824 4.824 0 0 1 6.8 0.328 4.8 4.8 0 0 1-0.328 6.8l-31.624 28.704a4.808 4.808 0 0 1-3.24 1.24z" fill="#FDF1F6" p-id="10058"></path><path d="M504.488 563.216a4.856 4.856 0 0 1-3.248-1.248l-31.624-28.696a4.8 4.8 0 1 1 6.472-7.128l31.624 28.688a4.816 4.816 0 0 1-3.224 8.384z" fill="#FDF1F6" p-id="10059"></path><path d="M340.736 563.216a4.824 4.824 0 0 1-3.232-8.384l31.624-28.688a4.808 4.808 0 1 1 6.456 7.128l-31.608 28.696a4.808 4.808 0 0 1-3.24 1.248z" fill="#FDF1F6" p-id="10060"></path><path d="M372.376 534.512a4.872 4.872 0 0 1-3.248-1.24l-31.624-28.704a4.816 4.816 0 0 1 6.472-7.128l31.608 28.704a4.816 4.816 0 0 1-3.208 8.368z" fill="#FDF1F6" p-id="10061"></path><path d="M343.544 613.584a4.864 4.864 0 0 1-3.44-1.416 4.84 4.84 0 0 1 0-6.792l158.16-158.152a4.824 4.824 0 0 1 6.816 6.808L346.936 612.168a4.736 4.736 0 0 1-3.392 1.416z" fill="#FDF1F6" p-id="10062"></path><path d="M466.456 490.664l-0.232-0.008a4.784 4.784 0 0 1-4.56-5.032l2.56-52.664a4.856 4.856 0 0 1 5.032-4.568 4.776 4.776 0 0 1 4.56 5.04l-2.544 52.664a4.816 4.816 0 0 1-4.816 4.568z" fill="#FDF1F6" p-id="10063"></path><path d="M466.456 490.664a4.816 4.816 0 0 1-0.24-9.616l52.656-2.56a4.792 4.792 0 0 1 5.032 4.568 4.8 4.8 0 0 1-4.56 5.048l-52.656 2.552-0.232 0.008z" fill="#FDF1F6" p-id="10064"></path><path d="M376.184 631.024h-0.248a4.824 4.824 0 0 1-4.56-5.048l2.56-52.648a4.832 4.832 0 0 1 5.032-4.568 4.8 4.8 0 0 1 4.576 5.04l-2.56 52.648a4.808 4.808 0 0 1-4.8 4.576z" fill="#FDF1F6" p-id="10065"></path><path d="M326.08 580.928a4.808 4.808 0 0 1-0.224-9.608l52.656-2.56a4.88 4.88 0 0 1 5.032 4.568 4.792 4.792 0 0 1-4.576 5.032l-52.64 2.568h-0.248z" fill="#FDF1F6" p-id="10066"></path><path d="M501.672 613.584a4.816 4.816 0 0 1-3.408-1.416l-158.16-158.136a4.856 4.856 0 0 1 0-6.808 4.856 4.856 0 0 1 6.832 0l158.128 158.152a4.784 4.784 0 0 1 0 6.792 4.752 4.752 0 0 1-3.392 1.416z" fill="#FDF1F6" p-id="10067"></path><path d="M519.128 580.928l-0.248-0.008-52.656-2.56a4.784 4.784 0 0 1-4.56-5.032 4.832 4.832 0 0 1 5.032-4.568l52.656 2.56a4.784 4.784 0 0 1 4.56 5.032 4.784 4.784 0 0 1-4.784 4.576z" fill="#FDF1F6" p-id="10068"></path><path d="M469.016 631.024a4.824 4.824 0 0 1-4.816-4.576l-2.544-52.648a4.8 4.8 0 0 1 4.56-5.04 4.872 4.872 0 0 1 5.048 4.568l2.544 52.656a4.816 4.816 0 0 1-4.56 5.04h-0.232z" fill="#FDF1F6" p-id="10069"></path><path d="M378.752 490.664l-0.232-0.008-52.656-2.552a4.808 4.808 0 0 1 0.472-9.616l52.64 2.56a4.8 4.8 0 0 1-0.224 9.616z" fill="#FDF1F6" p-id="10070"></path><path d="M378.736 490.664a4.824 4.824 0 0 1-4.8-4.576l-2.544-52.656a4.808 4.808 0 0 1 4.56-5.04 4.848 4.848 0 0 1 5.032 4.568l2.56 52.664a4.792 4.792 0 0 1-4.576 5.032l-0.232 0.008z" fill="#FDF1F6" p-id="10071"></path></svg>