<svg t="1631019231728" class="icon" viewBox="0 0 1024 1024" version="1.1" xmlns="http://www.w3.org/2000/svg" p-id="9623" width="200" height="200"><path d="M780 292.416c-72.48 0-131.424-60.96-131.424-135.904V0H176C131.84 0 96 37.056 96 82.72v858.592C96 987.008 131.84 1024 176 1024h672c44.16 0 80-36.992 80-82.688V292.416h-148z m16 547.424H227.968v-55.424h568.096v55.424z m0-177.376H227.968v-55.392h568.096v55.392z m0-177.344H227.968v-55.424h568.096v55.424z m-96-485.12v156.512c0 45.664 35.84 82.688 80 82.688H928L700 0z" fill="#FFB337" p-id="9624"></path></svg>
