<svg t="1631019110057" class="icon" viewBox="0 0 1024 1024" version="1.1" xmlns="http://www.w3.org/2000/svg" p-id="4617" width="200" height="200"><path d="M51.2 51.2m153.6 0l609.28 0q153.6 0 153.6 153.6l0 609.28q0 153.6-153.6 153.6l-609.28 0q-153.6 0-153.6-153.6l0-609.28q0-153.6 153.6-153.6Z" fill="#F19149" opacity=".2" p-id="4618"></path><path d="M260.46464 163.84h125.77792A96.67072 96.67072 0 0 1 482.8672 260.55168v222.59712H260.46464A96.67072 96.67072 0 0 1 163.84 386.43712V260.55168A96.67072 96.67072 0 0 1 260.46464 163.84z m508.19072 696.32h-125.77792a96.6656 96.6656 0 0 1-96.62464-96.71168v-222.59712h222.40256A96.6656 96.6656 0 0 1 865.28 637.56288v125.88544A96.6656 96.6656 0 0 1 768.65536 860.16zM263.168 860.16h125.75232a96.67072 96.67072 0 0 0 96.62976-96.71168v-222.59712H263.168a96.67072 96.67072 0 0 0-96.62976 96.71168v125.88544A96.67072 96.67072 0 0 0 263.168 860.16zM865.28 327.51616a160.85504 160.85504 0 1 0-160.85504 160.99328A160.92672 160.92672 0 0 0 865.28 327.51616z" fill="#F19149" p-id="4619"></path></svg>
