<svg t="1632642014138" class="icon" viewBox="0 0 1024 1024" version="1.1" xmlns="http://www.w3.org/2000/svg" p-id="28739" width="200" height="200"><path d="M963.161377 382.975415c-0.01842-8.944719-3.936659-17.438161-10.729365-23.25668L614.274338 70.112847c-11.608386-9.939373-28.756951-9.829879-40.2364 0.257873l-329.494363 289.605887c-6.631024 5.828752-10.432607 14.230096-10.432607 23.058159l0 418.240593c0 16.954137 13.744026 30.699186 30.699186 30.699186 16.954137 0 30.699186-13.745049 30.699186-30.699186L295.509341 396.925125 594.565461 134.072555l307.225173 263.114536 0.99363 504.114402-775.666098 0L127.118166 319.134411c0-16.95516-13.745049-30.699186-30.699186-30.699186s-30.699186 13.744026-30.699186 30.699186l0 583.858608c0 15.948227 6.210445 30.94171 17.48728 42.218544 11.276834 11.277858 26.270317 17.488303 42.218544 17.488303l779.054265 0c32.92283 0 59.706847-26.784016 59.706847-59.767222L963.161377 382.975415z" p-id="28740" fill="#ffffff"></path><path d="M95.437629 217.304188c36.391838 0 65.999157 29.607318 65.999157 65.998133 0 16.954137 13.745049 30.699186 30.699186 30.699186s30.699186-13.745049 30.699186-30.699186c0-70.246901-57.150628-127.396505-127.397528-127.396505-16.954137 0-30.699186 13.745049-30.699186 30.699186S78.483492 217.304188 95.437629 217.304188z" p-id="28741" fill="#ffffff"></path><path d="M132.699278 121.455189c63.051011 0 114.347305 51.296293 114.347305 114.347305 0 16.954137 13.745049 30.699186 30.699186 30.699186s30.699186-13.745049 30.699186-30.699186c0-96.907097-78.838579-175.745676-175.745676-175.745676-16.954137 0-30.699186 13.745049-30.699186 30.699186S115.744117 121.455189 132.699278 121.455189z" p-id="28742" fill="#ffffff"></path><path d="M511.336898 609.064686l0-102.33062c0-16.954137-13.745049-30.699186-30.699186-30.699186-16.954137 0-30.699186 13.745049-30.699186 30.699186l0 102.33062c0 16.954137 13.745049 30.699186 30.699186 30.699186C497.592872 639.763872 511.336898 626.018823 511.336898 609.064686z" p-id="28743" fill="#ffffff"></path><path d="M737.847771 609.064686l0-102.33062c0-16.954137-13.745049-30.699186-30.699186-30.699186s-30.699186 13.745049-30.699186 30.699186l0 102.33062c0 16.954137 13.745049 30.699186 30.699186 30.699186S737.847771 626.018823 737.847771 609.064686z" p-id="28744" fill="#ffffff"></path></svg>