<svg t="1652687470901" class="icon" viewBox="0 0 1024 1024" version="1.1" xmlns="http://www.w3.org/2000/svg" p-id="4395" width="48" height="48"><path d="M512 491.52m-477.184 0a477.184 477.184 0 1 0 954.368 0 477.184 477.184 0 1 0-954.368 0Z" fill="#FFCA4F" p-id="4396"></path><path d="M512 519.936c34.1504-16.64 55.5008-37.8368 63.1808-62.5152l-3.328-34.816c-8.4992 12.544-16.7936 23.7568-24.1152 32.2048-8.704 10.0864-62.0544 9.8816-70.7072 0.4096-7.6288-8.3968-16.1792-19.6608-24.8832-32.4096l-3.328 34.6112c7.68 24.6784 29.0304 45.8752 63.1808 62.5152zM512 519.936z" fill="#FFD4AE" p-id="4397"></path><path d="M608.3584 486.6048l-4.8128-1.536zM420.352 484.7616l-15.9232 5.0688 4.2496-1.3312zM228.6592 779.1616l20.0192 79.7696-1.4336 34.304c75.3664 51.5584 166.5536 81.7152 264.7552 81.7152 98.3552 0 189.6448-30.2592 265.1136-81.9712l-1.7408-48.7424 20.0192-65.1264 50.944 56.0128c31.5392-31.9488 58.5216-68.4544 79.9232-108.3904-48.3328-60.928-111.36-129.5872-139.0592-159.2832-8.2944-23.7056-23.9616-31.8464-23.9616-31.8464L626.176 492.1344l10.5472 3.328 6.656 88.0128s-1.8432 7.2704-7.3728 6.6048l-31.3856 11.8272s-2.048 2.048-0.2048 4.6592l26.88 18.432-80.6912 152.064h25.4464c1.7408 0 3.1232 1.3824 3.1232 3.1232v28.928c0 1.6896-1.3824 3.1232-3.1232 3.1232H448.1024c-1.6896 0-3.1232-1.3824-3.1232-3.1232v-28.928c0-1.7408 1.3824-3.1232 3.1232-3.1232h25.4464l-80.6912-152.064 26.88-18.432c1.8432-2.6112-0.2048-4.6592-0.2048-4.6592l-31.3856-11.8272c-5.5296 0.6656-7.3728-6.6048-7.3728-6.6048l6.7072-88.32 11.52-3.6864-138.0864 44.0832s-15.7184 8.192-23.9616 31.8976c-27.7504 29.696-90.7264 98.3552-139.0592 159.2832 21.4016 39.936 48.384 76.3904 79.9232 108.3904l50.8416-55.9616z" fill="#15BDB1" p-id="4398"></path><path d="M608.3584 486.6048l17.664 5.632zM398.9504 491.5712l5.4784-1.7408zM512 521.0112l1.536 0.0512-1.536-1.1264-1.536 1.1264zM404.4288 489.8304l-5.4784 1.7408 9.728-3.072zM603.5456 485.0688l22.4768 7.168-17.664-5.632z" fill="#F1F1F1" p-id="4399"></path><path d="M512 521.0112l-1.536 0.0512-60.7232 45.0048 62.2592 185.2928 62.976-184.7808-61.44-45.5168z" fill="#F1F1F1" p-id="4400"></path><path d="M408.6784 488.4992l11.6736-3.7376zM625.152 499.0464l-113.1008 267.1616-0.0512 0.1536-0.0512-0.1024L398.848 499.0464l2.56-1.6384-2.4064-5.8368-11.52 3.6864-6.7072 88.32s1.8432 7.2704 7.3728 6.6048l31.3856 11.8272s2.048 2.048 0.2048 4.6592l-26.88 18.432 80.6912 152.064h76.9024l80.6912-152.064-26.88-18.432c-1.8432-2.6112 0.2048-4.6592 0.2048-4.6592l31.3856-11.8272c5.5296 0.6656 7.3728-6.6048 7.3728-6.6048l-6.656-88.0128-10.5472-3.328-2.4576 5.8368 1.5872 0.9728z" fill="#20D0C2" p-id="4401"></path><path d="M398.848 499.0464l113.1008 267.264-110.592-268.8512zM625.152 499.0464l-1.536-0.9728-111.5648 268.1856zM603.4944 485.2736l20.1216 12.8 2.4064-5.8368-22.4768-7.168zM511.9488 766.3104l0.0512 0.0512 0.0512-0.1024-0.0512 0.1024zM420.5056 485.2736l-0.1536-0.512-11.6736 3.7376-9.728 3.072 2.4064 5.888z" fill="#20D0C2" p-id="4402"></path><path d="M574.976 566.5792l-62.976 184.7808-62.2592-185.2928-4.5056 3.2768-24.7296-84.0704-19.1488 12.1856 110.592 268.8512 0.0512 0.0512 0.0512-0.1024L623.616 498.0736l-20.1216-12.8-24.7808 84.0704z" fill="#20D0C2" p-id="4403"></path><path d="M478.8224 372.3264h88.1664l4.8128 50.2784c27.9552-41.2672 58.0096-97.6384 62.464-122.368 2.7648 1.7408 5.9904 3.8912 7.3216 2.9184 15.2576-11.008 28.4672-85.2992 8.0384-93.6448 0 0-19.6608 4.9664-22.1696 25.1392-2.3552 19.0976-0.8704 20.1216-0.7168 20.1728l-7.1168-1.5872-5.0688-34.6112c-29.44-18.432 0.2048-45.7728-29.2352-52.1728C505.856 223.232 435.6608 213.504 404.0192 186.8288c0 0 7.3728 27.904 1.6896 37.8368-5.6832 9.9328-2.304 25.6-2.304 25.6l-7.3728-0.3584s1.3312-41.0624-15.0528-40.9088c-29.4912-5.4784-15.2576 82.1248 1.4336 94.1568 1.3312 0.9728 4.608-1.1776 7.3216-2.9184 4.4544 24.7296 34.2528 81.3568 62.4128 122.5216l4.864-50.4832h21.8112z" fill="#FFDEBB" p-id="4404"></path><path d="M547.7376 454.8608c7.3216-8.448 15.616-19.6096 24.1152-32.2048l-4.8128-50.2784h-110.08l-4.864 50.4832c8.704 12.7488 17.3056 24.0128 24.8832 32.4096 8.704 9.472 62.0032 9.6256 70.7584-0.4096z" fill="#FFDEBB" p-id="4405"></path><path d="M383.8464 183.7568C385.4848 115.712 447.0784 81.7664 512 81.4592c64.8704 0.3072 126.5152 34.2528 128.1536 102.2464 0 8.6016 3.1232 17.0496 2.9184 25.344 2.5088-0.4608 4.7104-0.256 6.6048 0.512 0-0.1024 1.9456-32.8192-2.0992-68.3008-4.0448-35.5328-37.632-45.824-46.8992-44.7488C516.096-21.9648 318.5664 105.984 380.928 209.0496c-0.256-8.2432 2.9184-16.6912 2.9184-25.2928z" fill="#666666" p-id="4406"></path><path d="M395.9808 249.9584l7.3728 0.3584s-3.3792-15.6672 2.304-25.6S403.968 186.88 403.968 186.88c31.6416 26.6752 101.8368 36.352 181.3504-20.3264 29.44 6.4-0.2048 33.7408 29.2352 52.1728l5.0688 34.6112 7.1168 1.5872c-0.1536-0.0512-1.6384-1.0752 0.7168-20.1728 2.4576-20.1728 22.1696-25.1392 22.1696-25.1392-1.8944-0.768-4.096-0.9728-6.6048-0.512 0.256-8.2944-2.9184-16.6912-2.9184-25.344-1.6384-67.9936-63.2832-101.9904-128.1536-102.2464-64.9216 0.3072-126.5152 34.2528-128.1536 102.2464 0 8.6016-3.1232 17.0496-2.9184 25.344 16.4864-0.2048 15.104 40.8576 15.104 40.8576z" fill="#666666" p-id="4407"></path><path d="M447.2832 451.84c0.0512 0.1024 0.0512 0.256 0.1024 0.3584 0.0512-0.2048 0.0512-0.3072-0.1024-0.3584zM422.2464 484.1472l9.984-6.3488 15.8208-12.6976 0.7168-7.68c-0.5632-1.7408-1.024-3.4816-1.4336-5.2224-1.1264 3.584-27.0336 32.5632-27.0336 32.5632l1.9456-0.6144z" fill="#FFFFFF" p-id="4408"></path><path d="M432.2304 477.7984l-9.984 6.3488 0.6144 1.8432 55.2448 33.9456h33.8944c-34.1504-16.64-55.5008-37.8368-63.1808-62.5152l-0.7168 7.68-15.872 12.6976zM422.2464 484.1472l-1.8944 0.6144zM422.8608 485.9904l-0.6144-1.8432 0.6144 1.8432z" fill="#FFFFFF" p-id="4409"></path><path d="M510.464 521.0624l1.536-1.1264h-33.8944l-55.2448-33.9456 13.0048 38.7072z" fill="#FFFFFF" p-id="4410"></path><path d="M449.7408 566.0672l60.7232-45.0048-74.5984 3.6352-13.0048-38.7072zM421.0688 484.9152l1.1776-0.768-1.8944 0.6144 0.3072-0.1024z" fill="#FFFFFF" p-id="4411"></path><path d="M422.8608 485.9904l-0.6144-1.8432-1.1776 0.768zM420.6592 484.6592l-0.3072 0.1024 0.1536 0.512 0.5632-0.3584z" fill="#FFFFFF" p-id="4412"></path><path d="M449.7408 566.0672l-26.88-80.0768-1.792-1.0752-0.5632 0.3584 24.7296 84.0704zM576.6144 452.1984c0.0512-0.1024 0.0512-0.256 0.1024-0.3584-0.1536 0.0512-0.1536 0.1536-0.1024 0.3584z" fill="#FFFFFF" p-id="4413"></path><path d="M591.7696 477.7984l11.1104 7.0656 0.6656 0.2048 0.1024-0.3072s-25.9072-28.9792-27.0336-32.5632c-0.4096 1.7408-0.8704 3.4816-1.4336 5.2224l0.7168 7.68 15.872 12.6976z" fill="#FFFFFF" p-id="4414"></path><path d="M512 519.936h34.0992l56.7296-35.072-11.1104-7.0656-15.8208-12.6976-0.7168-7.68c-7.68 24.6784-29.0304 45.8752-63.1808 62.5152zM602.88 484.864l0.6656 0.2048-0.6656-0.2048zM602.88 484.864z" fill="#FFFFFF" p-id="4415"></path><path d="M589.2608 524.7488l13.568-39.8848-56.7296 35.072H512l1.536 1.1264zM602.88 484.864l0.6656 0.2048-0.6656-0.2048zM602.88 484.864z" fill="#FFFFFF" p-id="4416"></path><path d="M574.976 566.5792l14.2848-41.8304-75.7248-3.6864zM602.88 484.864h-0.0512 0.0512zM589.2608 524.7488l13.6192-39.8848h-0.0512l-13.568 39.8848zM603.4944 485.2736l0.0512-0.2048-0.6656-0.2048z" fill="#FFFFFF" p-id="4417"></path><path d="M602.88 484.864l-13.6192 39.8848-14.2848 41.8304 3.7376 2.7648 24.7808-84.0704-0.6144-0.4096z" fill="#FFFFFF" p-id="4418"></path><path d="M512 800.8704c-8.8064 0-17.5616-0.256-26.2656-0.768l-12.1856-22.9376h-25.4464c-1.6896 0-3.1232 1.3824-3.1232 3.1232v28.928c0 1.6896 1.3824 3.1232 3.1232 3.1232h127.7952c1.7408 0 3.1232-1.3824 3.1232-3.1232V780.288c0-1.7408-1.3824-3.1232-3.1232-3.1232h-25.4464l-12.1856 22.9376c-8.704 0.512-17.4592 0.768-26.2656 0.768z" fill="#ECF0F1" p-id="4419"></path><path d="M485.7344 800.1024c8.704 0.512 17.4592 0.768 26.2656 0.768 8.8064 0 17.5616-0.256 26.2656-0.768l12.1856-22.9376H473.5488l12.1856 22.9376z" fill="#ECF0F1" p-id="4420"></path></svg>
