<svg t="1642996209346" class="icon" viewBox="0 0 1024 1024" version="1.1" xmlns="http://www.w3.org/2000/svg" p-id="4645" width="200" height="200"><path d="M861.090909 279.272727h-139.636364V209.454545a23.272727 23.272727 0 0 0-23.272727-23.272727H325.818182a23.272727 23.272727 0 0 0-23.272727 23.272727v69.818182H162.909091a93.090909 93.090909 0 0 0-93.090909 93.090909v395.636364a93.090909 93.090909 0 0 0 93.090909 93.090909h698.181818a93.090909 93.090909 0 0 0 93.090909-93.090909V372.363636a93.090909 93.090909 0 0 0-93.090909-93.090909z m-512-46.545454h325.818182v46.545454H349.090909z m-186.181818 93.090909h698.181818a46.545455 46.545455 0 0 1 46.545455 46.545454v93.090909h-162.909091v-46.545454a23.272727 23.272727 0 0 0-46.545455 0v46.545454H325.818182v-46.545454a23.272727 23.272727 0 0 0-46.545455 0v46.545454H116.363636v-93.090909a46.545455 46.545455 0 0 1 46.545455-46.545454z m698.181818 488.727273H162.909091a46.545455 46.545455 0 0 1-46.545455-46.545455V512h162.909091v46.545455a23.272727 23.272727 0 0 0 46.545455 0v-46.545455h372.363636v46.545455a23.272727 23.272727 0 0 0 46.545455 0v-46.545455h162.909091v256a46.545455 46.545455 0 0 1-46.545455 46.545455z" p-id="4646" fill="#ffffff"></path></svg>