<svg t="1644404254575" class="icon" viewBox="0 0 1024 1024" version="1.1" xmlns="http://www.w3.org/2000/svg" p-id="4112" width="200" height="200"><path d="M512 1024C229.23 1024 0 794.77 0 512S229.23 0 512 0s512 229.23 512 512-229.23 512-512 512z m248.3-758.012l-2.296-2.297c-52.933-52.922-139.622-52.922-192.555 0L442.705 386.41c-52.932 52.923-52.932 139.595 0 192.517l2.297 2.297c4.363 4.361 9.07 8.38 13.893 12.054l44.896-44.887c-5.282-3.1-10.22-6.773-14.698-11.25l-2.297-2.296c-28.704-28.7-28.704-75.537 0-104.237L609.541 307.89c28.705-28.7 75.551-28.7 104.257 0l2.297 2.296c28.705 28.699 28.705 75.537 0 104.236l-55.46 55.448c9.646 23.763 14.239 49.134 13.78 74.504l85.886-85.869c52.932-52.922 52.932-139.594 0-192.516zM578.883 442.777c-4.363-4.362-9.07-8.381-13.893-12.054l-44.895 44.886c5.281 3.1 10.219 6.773 14.697 11.25l2.297 2.296c28.704 28.7 28.704 75.537 0 104.237L414.344 716.11c-28.705 28.7-75.551 28.7-104.257 0l-2.297-2.296c-28.705-28.699-28.705-75.537 0-104.236l55.574-55.448c-9.645-23.763-14.238-49.134-13.779-74.504L263.7 565.496c-52.932 52.922-52.932 139.595 0 192.516l2.297 2.297c52.933 52.922 139.622 52.922 192.555 0l122.744-122.72c52.932-52.921 52.932-139.594 0-192.516l-2.412-2.297z" fill="#F7A349" p-id="4113"></path></svg>