<svg t="1632641976019" class="icon" viewBox="0 0 1024 1024" version="1.1" xmlns="http://www.w3.org/2000/svg" p-id="26990" width="200" height="200"><path d="M785.066667 1024h-546.133334C143.36 1024 68.266667 948.906667 68.266667 853.333333v-682.666666C68.266667 75.093333 143.36 0 238.933333 0h546.133334C880.64 0 955.733333 75.093333 955.733333 170.666667v682.666666c0 95.573333-75.093333 170.666667-170.666666 170.666667z m-546.133334-955.733333C184.32 68.266667 136.533333 116.053333 136.533333 170.666667v682.666666c0 54.613333 47.786667 102.4 102.4 102.4h546.133334c54.613333 0 102.4-47.786667 102.4-102.4v-682.666666c0-54.613333-47.786667-102.4-102.4-102.4h-546.133334z" p-id="26991" fill="#ffffff"></path><path d="M238.933333 204.8h341.333334c20.48 0 34.133333 13.653333 34.133333 34.133333s-13.653333 34.133333-34.133333 34.133334h-341.333334c-20.48 0-34.133333-13.653333-34.133333-34.133334s13.653333-34.133333 34.133333-34.133333zM238.933333 409.6h477.866667c20.48 0 34.133333 13.653333 34.133333 34.133333s-13.653333 34.133333-34.133333 34.133334h-477.866667c-20.48 0-34.133333-13.653333-34.133333-34.133334s13.653333-34.133333 34.133333-34.133333zM238.933333 614.4h477.866667c20.48 0 34.133333 13.653333 34.133333 34.133333s-13.653333 34.133333-34.133333 34.133334h-477.866667c-20.48 0-34.133333-13.653333-34.133333-34.133334s13.653333-34.133333 34.133333-34.133333z" p-id="26992" fill="#ffffff"></path></svg>