<svg t="1644404344107" class="icon" viewBox="0 0 1024 1024" version="1.1" xmlns="http://www.w3.org/2000/svg" p-id="7506" width="200" height="200"><path d="M512 0C229.12 0 0 229.12 0 512s229.12 512 512 512 512-229.12 512-512S794.88 0 512 0zM307.2 751.36c-19.2 0-34.56-15.36-34.56-34.56s15.36-34.56 34.56-34.56 34.56 15.36 34.56 34.56-15.36 34.56-34.56 34.56z m0-204.8c-19.2 0-34.56-15.36-34.56-34.56s15.36-34.56 34.56-34.56 34.56 15.36 34.56 34.56-15.36 34.56-34.56 34.56z m0-204.8c-19.2 0-34.56-15.36-34.56-34.56s15.36-34.56 34.56-34.56 34.56 15.36 34.56 34.56-15.36 34.56-34.56 34.56z m409.6 409.6H444.16c-19.2 0-34.56-15.36-34.56-34.56s15.36-34.56 34.56-34.56H716.8c19.2 0 34.56 15.36 34.56 34.56s-15.36 34.56-34.56 34.56z m0-204.8H444.16c-19.2 0-34.56-15.36-34.56-34.56s15.36-34.56 34.56-34.56H716.8c19.2 0 34.56 15.36 34.56 34.56s-15.36 34.56-34.56 34.56z m0-204.8H444.16c-19.2 0-34.56-15.36-34.56-34.56s15.36-34.56 34.56-34.56H716.8c19.2 0 34.56 15.36 34.56 34.56s-15.36 34.56-34.56 34.56z" fill="#F19E30" p-id="7507"></path></svg>